G04 #@! TF.GenerationSoftware,KiCad,Pcbnew,(5.0.1)-4*
G04 #@! TF.CreationDate,2020-12-08T12:23:40+02:00*
G04 #@! TF.ProjectId,Single_transistor_AMP,53696E676C655F7472616E736973746F,1.0*
G04 #@! TF.SameCoordinates,Original*
G04 #@! TF.FileFunction,Copper,L1,Top,Signal*
G04 #@! TF.FilePolarity,Positive*
%FSLAX46Y46*%
G04 Gerber Fmt 4.6, Leading zero omitted, Abs format (unit mm)*
G04 Created by KiCad (PCBNEW (5.0.1)-4) date 2020.12.08. 12:23:40*
%MOMM*%
%LPD*%
G01*
G04 APERTURE LIST*
G04 #@! TA.AperFunction,SMDPad,CuDef*
%ADD10R,1.600000X2.000000*%
G04 #@! TD*
G04 #@! TA.AperFunction,SMDPad,CuDef*
%ADD11R,2.000000X1.600000*%
G04 #@! TD*
G04 #@! TA.AperFunction,ComponentPad*
%ADD12C,3.000000*%
G04 #@! TD*
G04 #@! TA.AperFunction,ComponentPad*
%ADD13R,3.000000X3.000000*%
G04 #@! TD*
G04 #@! TA.AperFunction,ComponentPad*
%ADD14R,1.500000X0.900000*%
G04 #@! TD*
G04 #@! TA.AperFunction,ComponentPad*
%ADD15O,1.500000X0.900000*%
G04 #@! TD*
G04 #@! TA.AperFunction,SMDPad,CuDef*
%ADD16R,1.700000X2.000000*%
G04 #@! TD*
G04 #@! TA.AperFunction,Conductor*
%ADD17C,0.500000*%
G04 #@! TD*
G04 #@! TA.AperFunction,Conductor*
%ADD18C,1.000000*%
G04 #@! TD*
G04 #@! TA.AperFunction,Conductor*
%ADD19C,0.254000*%
G04 #@! TD*
G04 APERTURE END LIST*
D10*
G04 #@! TO.P,C1,2*
G04 #@! TO.N,Net-(C1-Pad2)*
X99060000Y-60230000D03*
G04 #@! TO.P,C1,1*
G04 #@! TO.N,Net-(C1-Pad1)*
X99060000Y-64230000D03*
G04 #@! TD*
G04 #@! TO.P,C2,1*
G04 #@! TO.N,/GND*
X102870000Y-71850000D03*
G04 #@! TO.P,C2,2*
G04 #@! TO.N,Net-(C2-Pad2)*
X102870000Y-67850000D03*
G04 #@! TD*
D11*
G04 #@! TO.P,C3,2*
G04 #@! TO.N,Net-(C3-Pad2)*
X107220000Y-62230000D03*
G04 #@! TO.P,C3,1*
G04 #@! TO.N,Net-(C3-Pad1)*
X111220000Y-62230000D03*
G04 #@! TD*
D10*
G04 #@! TO.P,C4,2*
G04 #@! TO.N,Net-(C4-Pad2)*
X120650000Y-60230000D03*
G04 #@! TO.P,C4,1*
G04 #@! TO.N,Net-(C4-Pad1)*
X120650000Y-64230000D03*
G04 #@! TD*
G04 #@! TO.P,C5,1*
G04 #@! TO.N,/GND*
X115570000Y-71850000D03*
G04 #@! TO.P,C5,2*
G04 #@! TO.N,Net-(C5-Pad2)*
X115570000Y-67850000D03*
G04 #@! TD*
D12*
G04 #@! TO.P,J1,2*
G04 #@! TO.N,/GND*
X106680000Y-53340000D03*
D13*
G04 #@! TO.P,J1,1*
G04 #@! TO.N,/VCC*
X111760000Y-53340000D03*
G04 #@! TD*
D12*
G04 #@! TO.P,J2,2*
G04 #@! TO.N,/GND*
X92710000Y-64770000D03*
D13*
G04 #@! TO.P,J2,1*
G04 #@! TO.N,Net-(C1-Pad2)*
X92710000Y-59690000D03*
G04 #@! TD*
G04 #@! TO.P,J3,1*
G04 #@! TO.N,Net-(C4-Pad1)*
X127000000Y-64770000D03*
D12*
G04 #@! TO.P,J3,2*
G04 #@! TO.N,/GND*
X127000000Y-59690000D03*
G04 #@! TD*
D14*
G04 #@! TO.P,Q1,1*
G04 #@! TO.N,Net-(C3-Pad2)*
X102870000Y-60960000D03*
D15*
G04 #@! TO.P,Q1,3*
G04 #@! TO.N,Net-(C2-Pad2)*
X102870000Y-63500000D03*
G04 #@! TO.P,Q1,2*
G04 #@! TO.N,Net-(C1-Pad1)*
X102870000Y-62230000D03*
G04 #@! TD*
G04 #@! TO.P,Q2,2*
G04 #@! TO.N,Net-(C3-Pad1)*
X115570000Y-62230000D03*
G04 #@! TO.P,Q2,3*
G04 #@! TO.N,Net-(C5-Pad2)*
X115570000Y-63500000D03*
D14*
G04 #@! TO.P,Q2,1*
G04 #@! TO.N,Net-(C4-Pad2)*
X115570000Y-60960000D03*
G04 #@! TD*
D16*
G04 #@! TO.P,R1,1*
G04 #@! TO.N,/VCC*
X99060000Y-52610000D03*
G04 #@! TO.P,R1,2*
G04 #@! TO.N,Net-(C1-Pad1)*
X99060000Y-56610000D03*
G04 #@! TD*
G04 #@! TO.P,R2,2*
G04 #@! TO.N,/GND*
X100330000Y-71850000D03*
G04 #@! TO.P,R2,1*
G04 #@! TO.N,Net-(C1-Pad1)*
X100330000Y-67850000D03*
G04 #@! TD*
G04 #@! TO.P,R3,2*
G04 #@! TO.N,Net-(C3-Pad2)*
X101600000Y-56610000D03*
G04 #@! TO.P,R3,1*
G04 #@! TO.N,/VCC*
X101600000Y-52610000D03*
G04 #@! TD*
G04 #@! TO.P,R4,1*
G04 #@! TO.N,Net-(C2-Pad2)*
X105410000Y-67850000D03*
G04 #@! TO.P,R4,2*
G04 #@! TO.N,/GND*
X105410000Y-71850000D03*
G04 #@! TD*
G04 #@! TO.P,R5,1*
G04 #@! TO.N,/VCC*
X116840000Y-52610000D03*
G04 #@! TO.P,R5,2*
G04 #@! TO.N,Net-(C3-Pad1)*
X116840000Y-56610000D03*
G04 #@! TD*
G04 #@! TO.P,R6,2*
G04 #@! TO.N,/GND*
X113030000Y-71850000D03*
G04 #@! TO.P,R6,1*
G04 #@! TO.N,Net-(C3-Pad1)*
X113030000Y-67850000D03*
G04 #@! TD*
G04 #@! TO.P,R7,2*
G04 #@! TO.N,Net-(C4-Pad2)*
X119380000Y-56610000D03*
G04 #@! TO.P,R7,1*
G04 #@! TO.N,/VCC*
X119380000Y-52610000D03*
G04 #@! TD*
G04 #@! TO.P,R8,1*
G04 #@! TO.N,Net-(C5-Pad2)*
X118110000Y-67850000D03*
G04 #@! TO.P,R8,2*
G04 #@! TO.N,/GND*
X118110000Y-71850000D03*
G04 #@! TD*
D17*
G04 #@! TO.N,Net-(C1-Pad2)*
X98520000Y-59690000D02*
X99060000Y-60230000D01*
X92710000Y-59690000D02*
X98520000Y-59690000D01*
G04 #@! TO.N,Net-(C1-Pad1)*
X99060000Y-56760000D02*
X100720000Y-58420000D01*
X99060000Y-56610000D02*
X99060000Y-56760000D01*
X102870000Y-62230000D02*
X100720000Y-62230000D01*
X100720000Y-58420000D02*
X100720000Y-62230000D01*
X99060000Y-64030000D02*
X99060000Y-64230000D01*
X100720000Y-62230000D02*
X100720000Y-62370000D01*
X100720000Y-62370000D02*
X99060000Y-64030000D01*
X99060000Y-66580000D02*
X100330000Y-67850000D01*
X99060000Y-64230000D02*
X99060000Y-66580000D01*
G04 #@! TO.N,Net-(C2-Pad2)*
X102870000Y-67850000D02*
X102870000Y-63500000D01*
X102870000Y-67850000D02*
X105410000Y-67850000D01*
G04 #@! TO.N,Net-(C3-Pad2)*
X102870000Y-57880000D02*
X102870000Y-60960000D01*
X101600000Y-56610000D02*
X102870000Y-57880000D01*
X105950000Y-60960000D02*
X107220000Y-62230000D01*
X102870000Y-60960000D02*
X105950000Y-60960000D01*
G04 #@! TO.N,Net-(C3-Pad1)*
X116840000Y-56760000D02*
X113220000Y-60380000D01*
X116840000Y-56610000D02*
X116840000Y-56760000D01*
X113220000Y-61730000D02*
X113720000Y-62230000D01*
X113720000Y-62230000D02*
X113220000Y-62230000D01*
X115570000Y-62230000D02*
X113720000Y-62230000D01*
X113220000Y-61730000D02*
X113220000Y-62230000D01*
X113220000Y-60380000D02*
X113220000Y-61730000D01*
X113220000Y-61730000D02*
X112720000Y-62230000D01*
X113220000Y-62230000D02*
X112720000Y-62230000D01*
X112720000Y-62230000D02*
X111220000Y-62230000D01*
X112720000Y-62230000D02*
X113220000Y-62730000D01*
X113220000Y-62730000D02*
X113220000Y-62230000D01*
X113720000Y-62230000D02*
X113220000Y-62730000D01*
X113220000Y-67660000D02*
X113030000Y-67850000D01*
X113220000Y-62730000D02*
X113220000Y-67660000D01*
G04 #@! TO.N,Net-(C4-Pad2)*
X116300000Y-60230000D02*
X115570000Y-60960000D01*
X120650000Y-60230000D02*
X116300000Y-60230000D01*
X120650000Y-57880000D02*
X120650000Y-60230000D01*
X119380000Y-56610000D02*
X120650000Y-57880000D01*
G04 #@! TO.N,Net-(C4-Pad1)*
X126460000Y-64230000D02*
X127000000Y-64770000D01*
X120650000Y-64230000D02*
X126460000Y-64230000D01*
G04 #@! TO.N,Net-(C5-Pad2)*
X115570000Y-67850000D02*
X118110000Y-67850000D01*
X115570000Y-63500000D02*
X115570000Y-67850000D01*
D18*
G04 #@! TO.N,/VCC*
X99060000Y-52610000D02*
X101600000Y-52610000D01*
X109559999Y-51139999D02*
X111760000Y-53340000D01*
X104920001Y-51139999D02*
X109559999Y-51139999D01*
X103450000Y-52610000D02*
X104920001Y-51139999D01*
X101600000Y-52610000D02*
X103450000Y-52610000D01*
X116110000Y-53340000D02*
X116840000Y-52610000D01*
X111760000Y-53340000D02*
X116110000Y-53340000D01*
X116840000Y-52610000D02*
X119380000Y-52610000D01*
G04 #@! TD*
D19*
G04 #@! TO.N,/GND*
G36*
X127086442Y-48432517D02*
X127933848Y-48624267D01*
X128743603Y-48939163D01*
X129497915Y-49370288D01*
X130180223Y-49908177D01*
X130775531Y-50541008D01*
X131270757Y-51254875D01*
X131655032Y-52034107D01*
X131919905Y-52861571D01*
X132062363Y-53736289D01*
X132085000Y-54254772D01*
X132085001Y-68187872D01*
X132017482Y-69096443D01*
X131825735Y-69943842D01*
X131510839Y-70753598D01*
X131079711Y-71507916D01*
X130541823Y-72190223D01*
X129908998Y-72785527D01*
X129195125Y-73280758D01*
X128415891Y-73665033D01*
X127588429Y-73929905D01*
X126713712Y-74072363D01*
X126195228Y-74095000D01*
X93262115Y-74095000D01*
X92353557Y-74027482D01*
X91506158Y-73835735D01*
X90696402Y-73520839D01*
X89942084Y-73089711D01*
X89259777Y-72551823D01*
X88868374Y-72135750D01*
X98845000Y-72135750D01*
X98845000Y-72976309D01*
X98941673Y-73209698D01*
X99120301Y-73388327D01*
X99353690Y-73485000D01*
X100044250Y-73485000D01*
X100203000Y-73326250D01*
X100203000Y-71977000D01*
X100457000Y-71977000D01*
X100457000Y-73326250D01*
X100615750Y-73485000D01*
X101306310Y-73485000D01*
X101539699Y-73388327D01*
X101625000Y-73303026D01*
X101710301Y-73388327D01*
X101943690Y-73485000D01*
X102584250Y-73485000D01*
X102743000Y-73326250D01*
X102743000Y-71977000D01*
X102997000Y-71977000D01*
X102997000Y-73326250D01*
X103155750Y-73485000D01*
X103796310Y-73485000D01*
X104029699Y-73388327D01*
X104115000Y-73303026D01*
X104200301Y-73388327D01*
X104433690Y-73485000D01*
X105124250Y-73485000D01*
X105283000Y-73326250D01*
X105283000Y-71977000D01*
X105537000Y-71977000D01*
X105537000Y-73326250D01*
X105695750Y-73485000D01*
X106386310Y-73485000D01*
X106619699Y-73388327D01*
X106798327Y-73209698D01*
X106895000Y-72976309D01*
X106895000Y-72135750D01*
X111545000Y-72135750D01*
X111545000Y-72976309D01*
X111641673Y-73209698D01*
X111820301Y-73388327D01*
X112053690Y-73485000D01*
X112744250Y-73485000D01*
X112903000Y-73326250D01*
X112903000Y-71977000D01*
X113157000Y-71977000D01*
X113157000Y-73326250D01*
X113315750Y-73485000D01*
X114006310Y-73485000D01*
X114239699Y-73388327D01*
X114325000Y-73303026D01*
X114410301Y-73388327D01*
X114643690Y-73485000D01*
X115284250Y-73485000D01*
X115443000Y-73326250D01*
X115443000Y-71977000D01*
X115697000Y-71977000D01*
X115697000Y-73326250D01*
X115855750Y-73485000D01*
X116496310Y-73485000D01*
X116729699Y-73388327D01*
X116815000Y-73303026D01*
X116900301Y-73388327D01*
X117133690Y-73485000D01*
X117824250Y-73485000D01*
X117983000Y-73326250D01*
X117983000Y-71977000D01*
X118237000Y-71977000D01*
X118237000Y-73326250D01*
X118395750Y-73485000D01*
X119086310Y-73485000D01*
X119319699Y-73388327D01*
X119498327Y-73209698D01*
X119595000Y-72976309D01*
X119595000Y-72135750D01*
X119436250Y-71977000D01*
X118237000Y-71977000D01*
X117983000Y-71977000D01*
X115697000Y-71977000D01*
X115443000Y-71977000D01*
X113157000Y-71977000D01*
X112903000Y-71977000D01*
X111703750Y-71977000D01*
X111545000Y-72135750D01*
X106895000Y-72135750D01*
X106736250Y-71977000D01*
X105537000Y-71977000D01*
X105283000Y-71977000D01*
X102997000Y-71977000D01*
X102743000Y-71977000D01*
X100457000Y-71977000D01*
X100203000Y-71977000D01*
X99003750Y-71977000D01*
X98845000Y-72135750D01*
X88868374Y-72135750D01*
X88664473Y-71918998D01*
X88169242Y-71205125D01*
X87931826Y-70723691D01*
X98845000Y-70723691D01*
X98845000Y-71564250D01*
X99003750Y-71723000D01*
X100203000Y-71723000D01*
X100203000Y-70373750D01*
X100457000Y-70373750D01*
X100457000Y-71723000D01*
X102743000Y-71723000D01*
X102743000Y-70373750D01*
X102997000Y-70373750D01*
X102997000Y-71723000D01*
X105283000Y-71723000D01*
X105283000Y-70373750D01*
X105537000Y-70373750D01*
X105537000Y-71723000D01*
X106736250Y-71723000D01*
X106895000Y-71564250D01*
X106895000Y-70723691D01*
X111545000Y-70723691D01*
X111545000Y-71564250D01*
X111703750Y-71723000D01*
X112903000Y-71723000D01*
X112903000Y-70373750D01*
X113157000Y-70373750D01*
X113157000Y-71723000D01*
X115443000Y-71723000D01*
X115443000Y-70373750D01*
X115697000Y-70373750D01*
X115697000Y-71723000D01*
X117983000Y-71723000D01*
X117983000Y-70373750D01*
X118237000Y-70373750D01*
X118237000Y-71723000D01*
X119436250Y-71723000D01*
X119595000Y-71564250D01*
X119595000Y-70723691D01*
X119498327Y-70490302D01*
X119319699Y-70311673D01*
X119086310Y-70215000D01*
X118395750Y-70215000D01*
X118237000Y-70373750D01*
X117983000Y-70373750D01*
X117824250Y-70215000D01*
X117133690Y-70215000D01*
X116900301Y-70311673D01*
X116815000Y-70396974D01*
X116729699Y-70311673D01*
X116496310Y-70215000D01*
X115855750Y-70215000D01*
X115697000Y-70373750D01*
X115443000Y-70373750D01*
X115284250Y-70215000D01*
X114643690Y-70215000D01*
X114410301Y-70311673D01*
X114325000Y-70396974D01*
X114239699Y-70311673D01*
X114006310Y-70215000D01*
X113315750Y-70215000D01*
X113157000Y-70373750D01*
X112903000Y-70373750D01*
X112744250Y-70215000D01*
X112053690Y-70215000D01*
X111820301Y-70311673D01*
X111641673Y-70490302D01*
X111545000Y-70723691D01*
X106895000Y-70723691D01*
X106798327Y-70490302D01*
X106619699Y-70311673D01*
X106386310Y-70215000D01*
X105695750Y-70215000D01*
X105537000Y-70373750D01*
X105283000Y-70373750D01*
X105124250Y-70215000D01*
X104433690Y-70215000D01*
X104200301Y-70311673D01*
X104115000Y-70396974D01*
X104029699Y-70311673D01*
X103796310Y-70215000D01*
X103155750Y-70215000D01*
X102997000Y-70373750D01*
X102743000Y-70373750D01*
X102584250Y-70215000D01*
X101943690Y-70215000D01*
X101710301Y-70311673D01*
X101625000Y-70396974D01*
X101539699Y-70311673D01*
X101306310Y-70215000D01*
X100615750Y-70215000D01*
X100457000Y-70373750D01*
X100203000Y-70373750D01*
X100044250Y-70215000D01*
X99353690Y-70215000D01*
X99120301Y-70311673D01*
X98941673Y-70490302D01*
X98845000Y-70723691D01*
X87931826Y-70723691D01*
X87784967Y-70425891D01*
X87520095Y-69598429D01*
X87377637Y-68723712D01*
X87355000Y-68205228D01*
X87355000Y-66283970D01*
X91375635Y-66283970D01*
X91535418Y-66602739D01*
X92326187Y-66912723D01*
X93175387Y-66896497D01*
X93884582Y-66602739D01*
X94044365Y-66283970D01*
X92710000Y-64949605D01*
X91375635Y-66283970D01*
X87355000Y-66283970D01*
X87355000Y-64386187D01*
X90567277Y-64386187D01*
X90583503Y-65235387D01*
X90877261Y-65944582D01*
X91196030Y-66104365D01*
X92530395Y-64770000D01*
X92889605Y-64770000D01*
X94223970Y-66104365D01*
X94542739Y-65944582D01*
X94852723Y-65153813D01*
X94836497Y-64304613D01*
X94542739Y-63595418D01*
X94223970Y-63435635D01*
X92889605Y-64770000D01*
X92530395Y-64770000D01*
X91196030Y-63435635D01*
X90877261Y-63595418D01*
X90567277Y-64386187D01*
X87355000Y-64386187D01*
X87355000Y-63256030D01*
X91375635Y-63256030D01*
X92710000Y-64590395D01*
X94044365Y-63256030D01*
X93884582Y-62937261D01*
X93093813Y-62627277D01*
X92244613Y-62643503D01*
X91535418Y-62937261D01*
X91375635Y-63256030D01*
X87355000Y-63256030D01*
X87355000Y-58190000D01*
X90562560Y-58190000D01*
X90562560Y-61190000D01*
X90611843Y-61437765D01*
X90752191Y-61647809D01*
X90962235Y-61788157D01*
X91210000Y-61837440D01*
X94210000Y-61837440D01*
X94457765Y-61788157D01*
X94667809Y-61647809D01*
X94808157Y-61437765D01*
X94857440Y-61190000D01*
X94857440Y-60575000D01*
X97612560Y-60575000D01*
X97612560Y-61230000D01*
X97661843Y-61477765D01*
X97802191Y-61687809D01*
X98012235Y-61828157D01*
X98260000Y-61877440D01*
X99835001Y-61877440D01*
X99835001Y-62003420D01*
X99255862Y-62582560D01*
X98260000Y-62582560D01*
X98012235Y-62631843D01*
X97802191Y-62772191D01*
X97661843Y-62982235D01*
X97612560Y-63230000D01*
X97612560Y-65230000D01*
X97661843Y-65477765D01*
X97802191Y-65687809D01*
X98012235Y-65828157D01*
X98175001Y-65860533D01*
X98175001Y-66492835D01*
X98157663Y-66580000D01*
X98226348Y-66925309D01*
X98372576Y-67144154D01*
X98372578Y-67144156D01*
X98421952Y-67218049D01*
X98495845Y-67267423D01*
X98832560Y-67604138D01*
X98832560Y-68850000D01*
X98881843Y-69097765D01*
X99022191Y-69307809D01*
X99232235Y-69448157D01*
X99480000Y-69497440D01*
X101180000Y-69497440D01*
X101427765Y-69448157D01*
X101625000Y-69316368D01*
X101822235Y-69448157D01*
X102070000Y-69497440D01*
X103670000Y-69497440D01*
X103917765Y-69448157D01*
X104115000Y-69316368D01*
X104312235Y-69448157D01*
X104560000Y-69497440D01*
X106260000Y-69497440D01*
X106507765Y-69448157D01*
X106717809Y-69307809D01*
X106858157Y-69097765D01*
X106907440Y-68850000D01*
X106907440Y-66850000D01*
X106858157Y-66602235D01*
X106717809Y-66392191D01*
X106507765Y-66251843D01*
X106260000Y-66202560D01*
X104560000Y-66202560D01*
X104312235Y-66251843D01*
X104115000Y-66383632D01*
X103917765Y-66251843D01*
X103755000Y-66219467D01*
X103755000Y-64414033D01*
X103952241Y-64282241D01*
X104192047Y-63923346D01*
X104276256Y-63500000D01*
X104192047Y-63076654D01*
X104050624Y-62865000D01*
X104192047Y-62653346D01*
X104276256Y-62230000D01*
X104199675Y-61845000D01*
X105572560Y-61845000D01*
X105572560Y-63030000D01*
X105621843Y-63277765D01*
X105762191Y-63487809D01*
X105972235Y-63628157D01*
X106220000Y-63677440D01*
X108220000Y-63677440D01*
X108467765Y-63628157D01*
X108677809Y-63487809D01*
X108818157Y-63277765D01*
X108867440Y-63030000D01*
X108867440Y-61430000D01*
X109572560Y-61430000D01*
X109572560Y-63030000D01*
X109621843Y-63277765D01*
X109762191Y-63487809D01*
X109972235Y-63628157D01*
X110220000Y-63677440D01*
X112220000Y-63677440D01*
X112335000Y-63654565D01*
X112335001Y-66202560D01*
X112180000Y-66202560D01*
X111932235Y-66251843D01*
X111722191Y-66392191D01*
X111581843Y-66602235D01*
X111532560Y-66850000D01*
X111532560Y-68850000D01*
X111581843Y-69097765D01*
X111722191Y-69307809D01*
X111932235Y-69448157D01*
X112180000Y-69497440D01*
X113880000Y-69497440D01*
X114127765Y-69448157D01*
X114325000Y-69316368D01*
X114522235Y-69448157D01*
X114770000Y-69497440D01*
X116370000Y-69497440D01*
X116617765Y-69448157D01*
X116815000Y-69316368D01*
X117012235Y-69448157D01*
X117260000Y-69497440D01*
X118960000Y-69497440D01*
X119207765Y-69448157D01*
X119417809Y-69307809D01*
X119558157Y-69097765D01*
X119607440Y-68850000D01*
X119607440Y-66850000D01*
X119558157Y-66602235D01*
X119417809Y-66392191D01*
X119207765Y-66251843D01*
X118960000Y-66202560D01*
X117260000Y-66202560D01*
X117012235Y-66251843D01*
X116815000Y-66383632D01*
X116617765Y-66251843D01*
X116455000Y-66219467D01*
X116455000Y-64414033D01*
X116652241Y-64282241D01*
X116892047Y-63923346D01*
X116976256Y-63500000D01*
X116922550Y-63230000D01*
X119202560Y-63230000D01*
X119202560Y-65230000D01*
X119251843Y-65477765D01*
X119392191Y-65687809D01*
X119602235Y-65828157D01*
X119850000Y-65877440D01*
X121450000Y-65877440D01*
X121697765Y-65828157D01*
X121907809Y-65687809D01*
X122048157Y-65477765D01*
X122097440Y-65230000D01*
X122097440Y-65115000D01*
X124852560Y-65115000D01*
X124852560Y-66270000D01*
X124901843Y-66517765D01*
X125042191Y-66727809D01*
X125252235Y-66868157D01*
X125500000Y-66917440D01*
X128500000Y-66917440D01*
X128747765Y-66868157D01*
X128957809Y-66727809D01*
X129098157Y-66517765D01*
X129147440Y-66270000D01*
X129147440Y-63270000D01*
X129098157Y-63022235D01*
X128957809Y-62812191D01*
X128747765Y-62671843D01*
X128500000Y-62622560D01*
X125500000Y-62622560D01*
X125252235Y-62671843D01*
X125042191Y-62812191D01*
X124901843Y-63022235D01*
X124852560Y-63270000D01*
X124852560Y-63345000D01*
X122097440Y-63345000D01*
X122097440Y-63230000D01*
X122048157Y-62982235D01*
X121907809Y-62772191D01*
X121697765Y-62631843D01*
X121450000Y-62582560D01*
X119850000Y-62582560D01*
X119602235Y-62631843D01*
X119392191Y-62772191D01*
X119251843Y-62982235D01*
X119202560Y-63230000D01*
X116922550Y-63230000D01*
X116892047Y-63076654D01*
X116750624Y-62865000D01*
X116892047Y-62653346D01*
X116976256Y-62230000D01*
X116892047Y-61806654D01*
X116855360Y-61751747D01*
X116918157Y-61657765D01*
X116967440Y-61410000D01*
X116967440Y-61115000D01*
X119202560Y-61115000D01*
X119202560Y-61230000D01*
X119251843Y-61477765D01*
X119392191Y-61687809D01*
X119602235Y-61828157D01*
X119850000Y-61877440D01*
X121450000Y-61877440D01*
X121697765Y-61828157D01*
X121907809Y-61687809D01*
X122048157Y-61477765D01*
X122097440Y-61230000D01*
X122097440Y-61203970D01*
X125665635Y-61203970D01*
X125825418Y-61522739D01*
X126616187Y-61832723D01*
X127465387Y-61816497D01*
X128174582Y-61522739D01*
X128334365Y-61203970D01*
X127000000Y-59869605D01*
X125665635Y-61203970D01*
X122097440Y-61203970D01*
X122097440Y-59306187D01*
X124857277Y-59306187D01*
X124873503Y-60155387D01*
X125167261Y-60864582D01*
X125486030Y-61024365D01*
X126820395Y-59690000D01*
X127179605Y-59690000D01*
X128513970Y-61024365D01*
X128832739Y-60864582D01*
X129142723Y-60073813D01*
X129126497Y-59224613D01*
X128832739Y-58515418D01*
X128513970Y-58355635D01*
X127179605Y-59690000D01*
X126820395Y-59690000D01*
X125486030Y-58355635D01*
X125167261Y-58515418D01*
X124857277Y-59306187D01*
X122097440Y-59306187D01*
X122097440Y-59230000D01*
X122048157Y-58982235D01*
X121907809Y-58772191D01*
X121697765Y-58631843D01*
X121535000Y-58599467D01*
X121535000Y-58176030D01*
X125665635Y-58176030D01*
X127000000Y-59510395D01*
X128334365Y-58176030D01*
X128174582Y-57857261D01*
X127383813Y-57547277D01*
X126534613Y-57563503D01*
X125825418Y-57857261D01*
X125665635Y-58176030D01*
X121535000Y-58176030D01*
X121535000Y-57967159D01*
X121552337Y-57879999D01*
X121535000Y-57792839D01*
X121535000Y-57792835D01*
X121483652Y-57534690D01*
X121392351Y-57398049D01*
X121337424Y-57315845D01*
X121337423Y-57315844D01*
X121288049Y-57241951D01*
X121214156Y-57192577D01*
X120877440Y-56855861D01*
X120877440Y-55610000D01*
X120828157Y-55362235D01*
X120687809Y-55152191D01*
X120477765Y-55011843D01*
X120230000Y-54962560D01*
X118530000Y-54962560D01*
X118282235Y-55011843D01*
X118110000Y-55126928D01*
X117937765Y-55011843D01*
X117690000Y-54962560D01*
X115990000Y-54962560D01*
X115742235Y-55011843D01*
X115532191Y-55152191D01*
X115391843Y-55362235D01*
X115342560Y-55610000D01*
X115342560Y-57005861D01*
X112655847Y-59692575D01*
X112581951Y-59741951D01*
X112386348Y-60034691D01*
X112335000Y-60292836D01*
X112335000Y-60292839D01*
X112317663Y-60380000D01*
X112335000Y-60467161D01*
X112335000Y-60805435D01*
X112220000Y-60782560D01*
X110220000Y-60782560D01*
X109972235Y-60831843D01*
X109762191Y-60972191D01*
X109621843Y-61182235D01*
X109572560Y-61430000D01*
X108867440Y-61430000D01*
X108818157Y-61182235D01*
X108677809Y-60972191D01*
X108467765Y-60831843D01*
X108220000Y-60782560D01*
X107024138Y-60782560D01*
X106637424Y-60395846D01*
X106588049Y-60321951D01*
X106295310Y-60126348D01*
X106037165Y-60075000D01*
X106037161Y-60075000D01*
X105950000Y-60057663D01*
X105862839Y-60075000D01*
X104093050Y-60075000D01*
X104077809Y-60052191D01*
X103867765Y-59911843D01*
X103755000Y-59889413D01*
X103755000Y-57967159D01*
X103772337Y-57879999D01*
X103755000Y-57792839D01*
X103755000Y-57792835D01*
X103703652Y-57534690D01*
X103612351Y-57398049D01*
X103557424Y-57315845D01*
X103557423Y-57315844D01*
X103508049Y-57241951D01*
X103434156Y-57192577D01*
X103097440Y-56855861D01*
X103097440Y-55610000D01*
X103048157Y-55362235D01*
X102907809Y-55152191D01*
X102697765Y-55011843D01*
X102450000Y-54962560D01*
X100750000Y-54962560D01*
X100502235Y-55011843D01*
X100330000Y-55126928D01*
X100157765Y-55011843D01*
X99910000Y-54962560D01*
X98210000Y-54962560D01*
X97962235Y-55011843D01*
X97752191Y-55152191D01*
X97611843Y-55362235D01*
X97562560Y-55610000D01*
X97562560Y-57610000D01*
X97611843Y-57857765D01*
X97752191Y-58067809D01*
X97962235Y-58208157D01*
X98210000Y-58257440D01*
X99305861Y-58257440D01*
X99630981Y-58582560D01*
X98260000Y-58582560D01*
X98012235Y-58631843D01*
X97802191Y-58772191D01*
X97780269Y-58805000D01*
X94857440Y-58805000D01*
X94857440Y-58190000D01*
X94808157Y-57942235D01*
X94667809Y-57732191D01*
X94457765Y-57591843D01*
X94210000Y-57542560D01*
X91210000Y-57542560D01*
X90962235Y-57591843D01*
X90752191Y-57732191D01*
X90611843Y-57942235D01*
X90562560Y-58190000D01*
X87355000Y-58190000D01*
X87355000Y-54853970D01*
X105345635Y-54853970D01*
X105505418Y-55172739D01*
X106296187Y-55482723D01*
X107145387Y-55466497D01*
X107854582Y-55172739D01*
X108014365Y-54853970D01*
X106680000Y-53519605D01*
X105345635Y-54853970D01*
X87355000Y-54853970D01*
X87355000Y-54272115D01*
X87422517Y-53363558D01*
X87614267Y-52516152D01*
X87929163Y-51706397D01*
X87984258Y-51610000D01*
X97562560Y-51610000D01*
X97562560Y-53610000D01*
X97611843Y-53857765D01*
X97752191Y-54067809D01*
X97962235Y-54208157D01*
X98210000Y-54257440D01*
X99910000Y-54257440D01*
X100157765Y-54208157D01*
X100330000Y-54093072D01*
X100502235Y-54208157D01*
X100750000Y-54257440D01*
X102450000Y-54257440D01*
X102697765Y-54208157D01*
X102907809Y-54067809D01*
X103048157Y-53857765D01*
X103070587Y-53745000D01*
X103338217Y-53745000D01*
X103450000Y-53767235D01*
X103561783Y-53745000D01*
X103892855Y-53679146D01*
X104268289Y-53428289D01*
X104331613Y-53333518D01*
X104540496Y-53124636D01*
X104553503Y-53805387D01*
X104847261Y-54514582D01*
X105166030Y-54674365D01*
X106500395Y-53340000D01*
X106486253Y-53325858D01*
X106665858Y-53146253D01*
X106680000Y-53160395D01*
X106694143Y-53146253D01*
X106873748Y-53325858D01*
X106859605Y-53340000D01*
X108193970Y-54674365D01*
X108512739Y-54514582D01*
X108822723Y-53723813D01*
X108806497Y-52874613D01*
X108558129Y-52274999D01*
X109089868Y-52274999D01*
X109612560Y-52797691D01*
X109612560Y-54840000D01*
X109661843Y-55087765D01*
X109802191Y-55297809D01*
X110012235Y-55438157D01*
X110260000Y-55487440D01*
X113260000Y-55487440D01*
X113507765Y-55438157D01*
X113717809Y-55297809D01*
X113858157Y-55087765D01*
X113907440Y-54840000D01*
X113907440Y-54475000D01*
X115998217Y-54475000D01*
X116110000Y-54497235D01*
X116221783Y-54475000D01*
X116552855Y-54409146D01*
X116779899Y-54257440D01*
X117690000Y-54257440D01*
X117937765Y-54208157D01*
X118110000Y-54093072D01*
X118282235Y-54208157D01*
X118530000Y-54257440D01*
X120230000Y-54257440D01*
X120477765Y-54208157D01*
X120687809Y-54067809D01*
X120828157Y-53857765D01*
X120877440Y-53610000D01*
X120877440Y-51610000D01*
X120828157Y-51362235D01*
X120687809Y-51152191D01*
X120477765Y-51011843D01*
X120230000Y-50962560D01*
X118530000Y-50962560D01*
X118282235Y-51011843D01*
X118110000Y-51126928D01*
X117937765Y-51011843D01*
X117690000Y-50962560D01*
X115990000Y-50962560D01*
X115742235Y-51011843D01*
X115532191Y-51152191D01*
X115391843Y-51362235D01*
X115342560Y-51610000D01*
X115342560Y-52205000D01*
X113907440Y-52205000D01*
X113907440Y-51840000D01*
X113858157Y-51592235D01*
X113717809Y-51382191D01*
X113507765Y-51241843D01*
X113260000Y-51192560D01*
X111217691Y-51192560D01*
X110441612Y-50416481D01*
X110378288Y-50321710D01*
X110002854Y-50070853D01*
X109671782Y-50004999D01*
X109559999Y-49982764D01*
X109448216Y-50004999D01*
X105031782Y-50004999D01*
X104920000Y-49982764D01*
X104808218Y-50004999D01*
X104477146Y-50070853D01*
X104101712Y-50321710D01*
X104038390Y-50416478D01*
X103055536Y-51399333D01*
X103048157Y-51362235D01*
X102907809Y-51152191D01*
X102697765Y-51011843D01*
X102450000Y-50962560D01*
X100750000Y-50962560D01*
X100502235Y-51011843D01*
X100330000Y-51126928D01*
X100157765Y-51011843D01*
X99910000Y-50962560D01*
X98210000Y-50962560D01*
X97962235Y-51011843D01*
X97752191Y-51152191D01*
X97611843Y-51362235D01*
X97562560Y-51610000D01*
X87984258Y-51610000D01*
X88360288Y-50952085D01*
X88898177Y-50269777D01*
X89531008Y-49674469D01*
X90244875Y-49179243D01*
X91024107Y-48794968D01*
X91851571Y-48530095D01*
X92726289Y-48387637D01*
X93244772Y-48365000D01*
X126177885Y-48365000D01*
X127086442Y-48432517D01*
X127086442Y-48432517D01*
G37*
X127086442Y-48432517D02*
X127933848Y-48624267D01*
X128743603Y-48939163D01*
X129497915Y-49370288D01*
X130180223Y-49908177D01*
X130775531Y-50541008D01*
X131270757Y-51254875D01*
X131655032Y-52034107D01*
X131919905Y-52861571D01*
X132062363Y-53736289D01*
X132085000Y-54254772D01*
X132085001Y-68187872D01*
X132017482Y-69096443D01*
X131825735Y-69943842D01*
X131510839Y-70753598D01*
X131079711Y-71507916D01*
X130541823Y-72190223D01*
X129908998Y-72785527D01*
X129195125Y-73280758D01*
X128415891Y-73665033D01*
X127588429Y-73929905D01*
X126713712Y-74072363D01*
X126195228Y-74095000D01*
X93262115Y-74095000D01*
X92353557Y-74027482D01*
X91506158Y-73835735D01*
X90696402Y-73520839D01*
X89942084Y-73089711D01*
X89259777Y-72551823D01*
X88868374Y-72135750D01*
X98845000Y-72135750D01*
X98845000Y-72976309D01*
X98941673Y-73209698D01*
X99120301Y-73388327D01*
X99353690Y-73485000D01*
X100044250Y-73485000D01*
X100203000Y-73326250D01*
X100203000Y-71977000D01*
X100457000Y-71977000D01*
X100457000Y-73326250D01*
X100615750Y-73485000D01*
X101306310Y-73485000D01*
X101539699Y-73388327D01*
X101625000Y-73303026D01*
X101710301Y-73388327D01*
X101943690Y-73485000D01*
X102584250Y-73485000D01*
X102743000Y-73326250D01*
X102743000Y-71977000D01*
X102997000Y-71977000D01*
X102997000Y-73326250D01*
X103155750Y-73485000D01*
X103796310Y-73485000D01*
X104029699Y-73388327D01*
X104115000Y-73303026D01*
X104200301Y-73388327D01*
X104433690Y-73485000D01*
X105124250Y-73485000D01*
X105283000Y-73326250D01*
X105283000Y-71977000D01*
X105537000Y-71977000D01*
X105537000Y-73326250D01*
X105695750Y-73485000D01*
X106386310Y-73485000D01*
X106619699Y-73388327D01*
X106798327Y-73209698D01*
X106895000Y-72976309D01*
X106895000Y-72135750D01*
X111545000Y-72135750D01*
X111545000Y-72976309D01*
X111641673Y-73209698D01*
X111820301Y-73388327D01*
X112053690Y-73485000D01*
X112744250Y-73485000D01*
X112903000Y-73326250D01*
X112903000Y-71977000D01*
X113157000Y-71977000D01*
X113157000Y-73326250D01*
X113315750Y-73485000D01*
X114006310Y-73485000D01*
X114239699Y-73388327D01*
X114325000Y-73303026D01*
X114410301Y-73388327D01*
X114643690Y-73485000D01*
X115284250Y-73485000D01*
X115443000Y-73326250D01*
X115443000Y-71977000D01*
X115697000Y-71977000D01*
X115697000Y-73326250D01*
X115855750Y-73485000D01*
X116496310Y-73485000D01*
X116729699Y-73388327D01*
X116815000Y-73303026D01*
X116900301Y-73388327D01*
X117133690Y-73485000D01*
X117824250Y-73485000D01*
X117983000Y-73326250D01*
X117983000Y-71977000D01*
X118237000Y-71977000D01*
X118237000Y-73326250D01*
X118395750Y-73485000D01*
X119086310Y-73485000D01*
X119319699Y-73388327D01*
X119498327Y-73209698D01*
X119595000Y-72976309D01*
X119595000Y-72135750D01*
X119436250Y-71977000D01*
X118237000Y-71977000D01*
X117983000Y-71977000D01*
X115697000Y-71977000D01*
X115443000Y-71977000D01*
X113157000Y-71977000D01*
X112903000Y-71977000D01*
X111703750Y-71977000D01*
X111545000Y-72135750D01*
X106895000Y-72135750D01*
X106736250Y-71977000D01*
X105537000Y-71977000D01*
X105283000Y-71977000D01*
X102997000Y-71977000D01*
X102743000Y-71977000D01*
X100457000Y-71977000D01*
X100203000Y-71977000D01*
X99003750Y-71977000D01*
X98845000Y-72135750D01*
X88868374Y-72135750D01*
X88664473Y-71918998D01*
X88169242Y-71205125D01*
X87931826Y-70723691D01*
X98845000Y-70723691D01*
X98845000Y-71564250D01*
X99003750Y-71723000D01*
X100203000Y-71723000D01*
X100203000Y-70373750D01*
X100457000Y-70373750D01*
X100457000Y-71723000D01*
X102743000Y-71723000D01*
X102743000Y-70373750D01*
X102997000Y-70373750D01*
X102997000Y-71723000D01*
X105283000Y-71723000D01*
X105283000Y-70373750D01*
X105537000Y-70373750D01*
X105537000Y-71723000D01*
X106736250Y-71723000D01*
X106895000Y-71564250D01*
X106895000Y-70723691D01*
X111545000Y-70723691D01*
X111545000Y-71564250D01*
X111703750Y-71723000D01*
X112903000Y-71723000D01*
X112903000Y-70373750D01*
X113157000Y-70373750D01*
X113157000Y-71723000D01*
X115443000Y-71723000D01*
X115443000Y-70373750D01*
X115697000Y-70373750D01*
X115697000Y-71723000D01*
X117983000Y-71723000D01*
X117983000Y-70373750D01*
X118237000Y-70373750D01*
X118237000Y-71723000D01*
X119436250Y-71723000D01*
X119595000Y-71564250D01*
X119595000Y-70723691D01*
X119498327Y-70490302D01*
X119319699Y-70311673D01*
X119086310Y-70215000D01*
X118395750Y-70215000D01*
X118237000Y-70373750D01*
X117983000Y-70373750D01*
X117824250Y-70215000D01*
X117133690Y-70215000D01*
X116900301Y-70311673D01*
X116815000Y-70396974D01*
X116729699Y-70311673D01*
X116496310Y-70215000D01*
X115855750Y-70215000D01*
X115697000Y-70373750D01*
X115443000Y-70373750D01*
X115284250Y-70215000D01*
X114643690Y-70215000D01*
X114410301Y-70311673D01*
X114325000Y-70396974D01*
X114239699Y-70311673D01*
X114006310Y-70215000D01*
X113315750Y-70215000D01*
X113157000Y-70373750D01*
X112903000Y-70373750D01*
X112744250Y-70215000D01*
X112053690Y-70215000D01*
X111820301Y-70311673D01*
X111641673Y-70490302D01*
X111545000Y-70723691D01*
X106895000Y-70723691D01*
X106798327Y-70490302D01*
X106619699Y-70311673D01*
X106386310Y-70215000D01*
X105695750Y-70215000D01*
X105537000Y-70373750D01*
X105283000Y-70373750D01*
X105124250Y-70215000D01*
X104433690Y-70215000D01*
X104200301Y-70311673D01*
X104115000Y-70396974D01*
X104029699Y-70311673D01*
X103796310Y-70215000D01*
X103155750Y-70215000D01*
X102997000Y-70373750D01*
X102743000Y-70373750D01*
X102584250Y-70215000D01*
X101943690Y-70215000D01*
X101710301Y-70311673D01*
X101625000Y-70396974D01*
X101539699Y-70311673D01*
X101306310Y-70215000D01*
X100615750Y-70215000D01*
X100457000Y-70373750D01*
X100203000Y-70373750D01*
X100044250Y-70215000D01*
X99353690Y-70215000D01*
X99120301Y-70311673D01*
X98941673Y-70490302D01*
X98845000Y-70723691D01*
X87931826Y-70723691D01*
X87784967Y-70425891D01*
X87520095Y-69598429D01*
X87377637Y-68723712D01*
X87355000Y-68205228D01*
X87355000Y-66283970D01*
X91375635Y-66283970D01*
X91535418Y-66602739D01*
X92326187Y-66912723D01*
X93175387Y-66896497D01*
X93884582Y-66602739D01*
X94044365Y-66283970D01*
X92710000Y-64949605D01*
X91375635Y-66283970D01*
X87355000Y-66283970D01*
X87355000Y-64386187D01*
X90567277Y-64386187D01*
X90583503Y-65235387D01*
X90877261Y-65944582D01*
X91196030Y-66104365D01*
X92530395Y-64770000D01*
X92889605Y-64770000D01*
X94223970Y-66104365D01*
X94542739Y-65944582D01*
X94852723Y-65153813D01*
X94836497Y-64304613D01*
X94542739Y-63595418D01*
X94223970Y-63435635D01*
X92889605Y-64770000D01*
X92530395Y-64770000D01*
X91196030Y-63435635D01*
X90877261Y-63595418D01*
X90567277Y-64386187D01*
X87355000Y-64386187D01*
X87355000Y-63256030D01*
X91375635Y-63256030D01*
X92710000Y-64590395D01*
X94044365Y-63256030D01*
X93884582Y-62937261D01*
X93093813Y-62627277D01*
X92244613Y-62643503D01*
X91535418Y-62937261D01*
X91375635Y-63256030D01*
X87355000Y-63256030D01*
X87355000Y-58190000D01*
X90562560Y-58190000D01*
X90562560Y-61190000D01*
X90611843Y-61437765D01*
X90752191Y-61647809D01*
X90962235Y-61788157D01*
X91210000Y-61837440D01*
X94210000Y-61837440D01*
X94457765Y-61788157D01*
X94667809Y-61647809D01*
X94808157Y-61437765D01*
X94857440Y-61190000D01*
X94857440Y-60575000D01*
X97612560Y-60575000D01*
X97612560Y-61230000D01*
X97661843Y-61477765D01*
X97802191Y-61687809D01*
X98012235Y-61828157D01*
X98260000Y-61877440D01*
X99835001Y-61877440D01*
X99835001Y-62003420D01*
X99255862Y-62582560D01*
X98260000Y-62582560D01*
X98012235Y-62631843D01*
X97802191Y-62772191D01*
X97661843Y-62982235D01*
X97612560Y-63230000D01*
X97612560Y-65230000D01*
X97661843Y-65477765D01*
X97802191Y-65687809D01*
X98012235Y-65828157D01*
X98175001Y-65860533D01*
X98175001Y-66492835D01*
X98157663Y-66580000D01*
X98226348Y-66925309D01*
X98372576Y-67144154D01*
X98372578Y-67144156D01*
X98421952Y-67218049D01*
X98495845Y-67267423D01*
X98832560Y-67604138D01*
X98832560Y-68850000D01*
X98881843Y-69097765D01*
X99022191Y-69307809D01*
X99232235Y-69448157D01*
X99480000Y-69497440D01*
X101180000Y-69497440D01*
X101427765Y-69448157D01*
X101625000Y-69316368D01*
X101822235Y-69448157D01*
X102070000Y-69497440D01*
X103670000Y-69497440D01*
X103917765Y-69448157D01*
X104115000Y-69316368D01*
X104312235Y-69448157D01*
X104560000Y-69497440D01*
X106260000Y-69497440D01*
X106507765Y-69448157D01*
X106717809Y-69307809D01*
X106858157Y-69097765D01*
X106907440Y-68850000D01*
X106907440Y-66850000D01*
X106858157Y-66602235D01*
X106717809Y-66392191D01*
X106507765Y-66251843D01*
X106260000Y-66202560D01*
X104560000Y-66202560D01*
X104312235Y-66251843D01*
X104115000Y-66383632D01*
X103917765Y-66251843D01*
X103755000Y-66219467D01*
X103755000Y-64414033D01*
X103952241Y-64282241D01*
X104192047Y-63923346D01*
X104276256Y-63500000D01*
X104192047Y-63076654D01*
X104050624Y-62865000D01*
X104192047Y-62653346D01*
X104276256Y-62230000D01*
X104199675Y-61845000D01*
X105572560Y-61845000D01*
X105572560Y-63030000D01*
X105621843Y-63277765D01*
X105762191Y-63487809D01*
X105972235Y-63628157D01*
X106220000Y-63677440D01*
X108220000Y-63677440D01*
X108467765Y-63628157D01*
X108677809Y-63487809D01*
X108818157Y-63277765D01*
X108867440Y-63030000D01*
X108867440Y-61430000D01*
X109572560Y-61430000D01*
X109572560Y-63030000D01*
X109621843Y-63277765D01*
X109762191Y-63487809D01*
X109972235Y-63628157D01*
X110220000Y-63677440D01*
X112220000Y-63677440D01*
X112335000Y-63654565D01*
X112335001Y-66202560D01*
X112180000Y-66202560D01*
X111932235Y-66251843D01*
X111722191Y-66392191D01*
X111581843Y-66602235D01*
X111532560Y-66850000D01*
X111532560Y-68850000D01*
X111581843Y-69097765D01*
X111722191Y-69307809D01*
X111932235Y-69448157D01*
X112180000Y-69497440D01*
X113880000Y-69497440D01*
X114127765Y-69448157D01*
X114325000Y-69316368D01*
X114522235Y-69448157D01*
X114770000Y-69497440D01*
X116370000Y-69497440D01*
X116617765Y-69448157D01*
X116815000Y-69316368D01*
X117012235Y-69448157D01*
X117260000Y-69497440D01*
X118960000Y-69497440D01*
X119207765Y-69448157D01*
X119417809Y-69307809D01*
X119558157Y-69097765D01*
X119607440Y-68850000D01*
X119607440Y-66850000D01*
X119558157Y-66602235D01*
X119417809Y-66392191D01*
X119207765Y-66251843D01*
X118960000Y-66202560D01*
X117260000Y-66202560D01*
X117012235Y-66251843D01*
X116815000Y-66383632D01*
X116617765Y-66251843D01*
X116455000Y-66219467D01*
X116455000Y-64414033D01*
X116652241Y-64282241D01*
X116892047Y-63923346D01*
X116976256Y-63500000D01*
X116922550Y-63230000D01*
X119202560Y-63230000D01*
X119202560Y-65230000D01*
X119251843Y-65477765D01*
X119392191Y-65687809D01*
X119602235Y-65828157D01*
X119850000Y-65877440D01*
X121450000Y-65877440D01*
X121697765Y-65828157D01*
X121907809Y-65687809D01*
X122048157Y-65477765D01*
X122097440Y-65230000D01*
X122097440Y-65115000D01*
X124852560Y-65115000D01*
X124852560Y-66270000D01*
X124901843Y-66517765D01*
X125042191Y-66727809D01*
X125252235Y-66868157D01*
X125500000Y-66917440D01*
X128500000Y-66917440D01*
X128747765Y-66868157D01*
X128957809Y-66727809D01*
X129098157Y-66517765D01*
X129147440Y-66270000D01*
X129147440Y-63270000D01*
X129098157Y-63022235D01*
X128957809Y-62812191D01*
X128747765Y-62671843D01*
X128500000Y-62622560D01*
X125500000Y-62622560D01*
X125252235Y-62671843D01*
X125042191Y-62812191D01*
X124901843Y-63022235D01*
X124852560Y-63270000D01*
X124852560Y-63345000D01*
X122097440Y-63345000D01*
X122097440Y-63230000D01*
X122048157Y-62982235D01*
X121907809Y-62772191D01*
X121697765Y-62631843D01*
X121450000Y-62582560D01*
X119850000Y-62582560D01*
X119602235Y-62631843D01*
X119392191Y-62772191D01*
X119251843Y-62982235D01*
X119202560Y-63230000D01*
X116922550Y-63230000D01*
X116892047Y-63076654D01*
X116750624Y-62865000D01*
X116892047Y-62653346D01*
X116976256Y-62230000D01*
X116892047Y-61806654D01*
X116855360Y-61751747D01*
X116918157Y-61657765D01*
X116967440Y-61410000D01*
X116967440Y-61115000D01*
X119202560Y-61115000D01*
X119202560Y-61230000D01*
X119251843Y-61477765D01*
X119392191Y-61687809D01*
X119602235Y-61828157D01*
X119850000Y-61877440D01*
X121450000Y-61877440D01*
X121697765Y-61828157D01*
X121907809Y-61687809D01*
X122048157Y-61477765D01*
X122097440Y-61230000D01*
X122097440Y-61203970D01*
X125665635Y-61203970D01*
X125825418Y-61522739D01*
X126616187Y-61832723D01*
X127465387Y-61816497D01*
X128174582Y-61522739D01*
X128334365Y-61203970D01*
X127000000Y-59869605D01*
X125665635Y-61203970D01*
X122097440Y-61203970D01*
X122097440Y-59306187D01*
X124857277Y-59306187D01*
X124873503Y-60155387D01*
X125167261Y-60864582D01*
X125486030Y-61024365D01*
X126820395Y-59690000D01*
X127179605Y-59690000D01*
X128513970Y-61024365D01*
X128832739Y-60864582D01*
X129142723Y-60073813D01*
X129126497Y-59224613D01*
X128832739Y-58515418D01*
X128513970Y-58355635D01*
X127179605Y-59690000D01*
X126820395Y-59690000D01*
X125486030Y-58355635D01*
X125167261Y-58515418D01*
X124857277Y-59306187D01*
X122097440Y-59306187D01*
X122097440Y-59230000D01*
X122048157Y-58982235D01*
X121907809Y-58772191D01*
X121697765Y-58631843D01*
X121535000Y-58599467D01*
X121535000Y-58176030D01*
X125665635Y-58176030D01*
X127000000Y-59510395D01*
X128334365Y-58176030D01*
X128174582Y-57857261D01*
X127383813Y-57547277D01*
X126534613Y-57563503D01*
X125825418Y-57857261D01*
X125665635Y-58176030D01*
X121535000Y-58176030D01*
X121535000Y-57967159D01*
X121552337Y-57879999D01*
X121535000Y-57792839D01*
X121535000Y-57792835D01*
X121483652Y-57534690D01*
X121392351Y-57398049D01*
X121337424Y-57315845D01*
X121337423Y-57315844D01*
X121288049Y-57241951D01*
X121214156Y-57192577D01*
X120877440Y-56855861D01*
X120877440Y-55610000D01*
X120828157Y-55362235D01*
X120687809Y-55152191D01*
X120477765Y-55011843D01*
X120230000Y-54962560D01*
X118530000Y-54962560D01*
X118282235Y-55011843D01*
X118110000Y-55126928D01*
X117937765Y-55011843D01*
X117690000Y-54962560D01*
X115990000Y-54962560D01*
X115742235Y-55011843D01*
X115532191Y-55152191D01*
X115391843Y-55362235D01*
X115342560Y-55610000D01*
X115342560Y-57005861D01*
X112655847Y-59692575D01*
X112581951Y-59741951D01*
X112386348Y-60034691D01*
X112335000Y-60292836D01*
X112335000Y-60292839D01*
X112317663Y-60380000D01*
X112335000Y-60467161D01*
X112335000Y-60805435D01*
X112220000Y-60782560D01*
X110220000Y-60782560D01*
X109972235Y-60831843D01*
X109762191Y-60972191D01*
X109621843Y-61182235D01*
X109572560Y-61430000D01*
X108867440Y-61430000D01*
X108818157Y-61182235D01*
X108677809Y-60972191D01*
X108467765Y-60831843D01*
X108220000Y-60782560D01*
X107024138Y-60782560D01*
X106637424Y-60395846D01*
X106588049Y-60321951D01*
X106295310Y-60126348D01*
X106037165Y-60075000D01*
X106037161Y-60075000D01*
X105950000Y-60057663D01*
X105862839Y-60075000D01*
X104093050Y-60075000D01*
X104077809Y-60052191D01*
X103867765Y-59911843D01*
X103755000Y-59889413D01*
X103755000Y-57967159D01*
X103772337Y-57879999D01*
X103755000Y-57792839D01*
X103755000Y-57792835D01*
X103703652Y-57534690D01*
X103612351Y-57398049D01*
X103557424Y-57315845D01*
X103557423Y-57315844D01*
X103508049Y-57241951D01*
X103434156Y-57192577D01*
X103097440Y-56855861D01*
X103097440Y-55610000D01*
X103048157Y-55362235D01*
X102907809Y-55152191D01*
X102697765Y-55011843D01*
X102450000Y-54962560D01*
X100750000Y-54962560D01*
X100502235Y-55011843D01*
X100330000Y-55126928D01*
X100157765Y-55011843D01*
X99910000Y-54962560D01*
X98210000Y-54962560D01*
X97962235Y-55011843D01*
X97752191Y-55152191D01*
X97611843Y-55362235D01*
X97562560Y-55610000D01*
X97562560Y-57610000D01*
X97611843Y-57857765D01*
X97752191Y-58067809D01*
X97962235Y-58208157D01*
X98210000Y-58257440D01*
X99305861Y-58257440D01*
X99630981Y-58582560D01*
X98260000Y-58582560D01*
X98012235Y-58631843D01*
X97802191Y-58772191D01*
X97780269Y-58805000D01*
X94857440Y-58805000D01*
X94857440Y-58190000D01*
X94808157Y-57942235D01*
X94667809Y-57732191D01*
X94457765Y-57591843D01*
X94210000Y-57542560D01*
X91210000Y-57542560D01*
X90962235Y-57591843D01*
X90752191Y-57732191D01*
X90611843Y-57942235D01*
X90562560Y-58190000D01*
X87355000Y-58190000D01*
X87355000Y-54853970D01*
X105345635Y-54853970D01*
X105505418Y-55172739D01*
X106296187Y-55482723D01*
X107145387Y-55466497D01*
X107854582Y-55172739D01*
X108014365Y-54853970D01*
X106680000Y-53519605D01*
X105345635Y-54853970D01*
X87355000Y-54853970D01*
X87355000Y-54272115D01*
X87422517Y-53363558D01*
X87614267Y-52516152D01*
X87929163Y-51706397D01*
X87984258Y-51610000D01*
X97562560Y-51610000D01*
X97562560Y-53610000D01*
X97611843Y-53857765D01*
X97752191Y-54067809D01*
X97962235Y-54208157D01*
X98210000Y-54257440D01*
X99910000Y-54257440D01*
X100157765Y-54208157D01*
X100330000Y-54093072D01*
X100502235Y-54208157D01*
X100750000Y-54257440D01*
X102450000Y-54257440D01*
X102697765Y-54208157D01*
X102907809Y-54067809D01*
X103048157Y-53857765D01*
X103070587Y-53745000D01*
X103338217Y-53745000D01*
X103450000Y-53767235D01*
X103561783Y-53745000D01*
X103892855Y-53679146D01*
X104268289Y-53428289D01*
X104331613Y-53333518D01*
X104540496Y-53124636D01*
X104553503Y-53805387D01*
X104847261Y-54514582D01*
X105166030Y-54674365D01*
X106500395Y-53340000D01*
X106486253Y-53325858D01*
X106665858Y-53146253D01*
X106680000Y-53160395D01*
X106694143Y-53146253D01*
X106873748Y-53325858D01*
X106859605Y-53340000D01*
X108193970Y-54674365D01*
X108512739Y-54514582D01*
X108822723Y-53723813D01*
X108806497Y-52874613D01*
X108558129Y-52274999D01*
X109089868Y-52274999D01*
X109612560Y-52797691D01*
X109612560Y-54840000D01*
X109661843Y-55087765D01*
X109802191Y-55297809D01*
X110012235Y-55438157D01*
X110260000Y-55487440D01*
X113260000Y-55487440D01*
X113507765Y-55438157D01*
X113717809Y-55297809D01*
X113858157Y-55087765D01*
X113907440Y-54840000D01*
X113907440Y-54475000D01*
X115998217Y-54475000D01*
X116110000Y-54497235D01*
X116221783Y-54475000D01*
X116552855Y-54409146D01*
X116779899Y-54257440D01*
X117690000Y-54257440D01*
X117937765Y-54208157D01*
X118110000Y-54093072D01*
X118282235Y-54208157D01*
X118530000Y-54257440D01*
X120230000Y-54257440D01*
X120477765Y-54208157D01*
X120687809Y-54067809D01*
X120828157Y-53857765D01*
X120877440Y-53610000D01*
X120877440Y-51610000D01*
X120828157Y-51362235D01*
X120687809Y-51152191D01*
X120477765Y-51011843D01*
X120230000Y-50962560D01*
X118530000Y-50962560D01*
X118282235Y-51011843D01*
X118110000Y-51126928D01*
X117937765Y-51011843D01*
X117690000Y-50962560D01*
X115990000Y-50962560D01*
X115742235Y-51011843D01*
X115532191Y-51152191D01*
X115391843Y-51362235D01*
X115342560Y-51610000D01*
X115342560Y-52205000D01*
X113907440Y-52205000D01*
X113907440Y-51840000D01*
X113858157Y-51592235D01*
X113717809Y-51382191D01*
X113507765Y-51241843D01*
X113260000Y-51192560D01*
X111217691Y-51192560D01*
X110441612Y-50416481D01*
X110378288Y-50321710D01*
X110002854Y-50070853D01*
X109671782Y-50004999D01*
X109559999Y-49982764D01*
X109448216Y-50004999D01*
X105031782Y-50004999D01*
X104920000Y-49982764D01*
X104808218Y-50004999D01*
X104477146Y-50070853D01*
X104101712Y-50321710D01*
X104038390Y-50416478D01*
X103055536Y-51399333D01*
X103048157Y-51362235D01*
X102907809Y-51152191D01*
X102697765Y-51011843D01*
X102450000Y-50962560D01*
X100750000Y-50962560D01*
X100502235Y-51011843D01*
X100330000Y-51126928D01*
X100157765Y-51011843D01*
X99910000Y-50962560D01*
X98210000Y-50962560D01*
X97962235Y-51011843D01*
X97752191Y-51152191D01*
X97611843Y-51362235D01*
X97562560Y-51610000D01*
X87984258Y-51610000D01*
X88360288Y-50952085D01*
X88898177Y-50269777D01*
X89531008Y-49674469D01*
X90244875Y-49179243D01*
X91024107Y-48794968D01*
X91851571Y-48530095D01*
X92726289Y-48387637D01*
X93244772Y-48365000D01*
X126177885Y-48365000D01*
X127086442Y-48432517D01*
G04 #@! TD*
M02*
