G04 #@! TF.GenerationSoftware,KiCad,Pcbnew,(5.0.1)-4*
G04 #@! TF.CreationDate,2020-12-08T12:23:40+02:00*
G04 #@! TF.ProjectId,Single_transistor_AMP,53696E676C655F7472616E736973746F,1.0*
G04 #@! TF.SameCoordinates,Original*
G04 #@! TF.FileFunction,Soldermask,Top*
G04 #@! TF.FilePolarity,Negative*
%FSLAX46Y46*%
G04 Gerber Fmt 4.6, Leading zero omitted, Abs format (unit mm)*
G04 Created by KiCad (PCBNEW (5.0.1)-4) date 2020.12.08. 12:23:40*
%MOMM*%
%LPD*%
G01*
G04 APERTURE LIST*
%ADD10C,0.100000*%
G04 APERTURE END LIST*
D10*
G36*
X119011000Y-72901000D02*
X117209000Y-72901000D01*
X117209000Y-70799000D01*
X119011000Y-70799000D01*
X119011000Y-72901000D01*
X119011000Y-72901000D01*
G37*
G36*
X116421000Y-72901000D02*
X114719000Y-72901000D01*
X114719000Y-70799000D01*
X116421000Y-70799000D01*
X116421000Y-72901000D01*
X116421000Y-72901000D01*
G37*
G36*
X103721000Y-72901000D02*
X102019000Y-72901000D01*
X102019000Y-70799000D01*
X103721000Y-70799000D01*
X103721000Y-72901000D01*
X103721000Y-72901000D01*
G37*
G36*
X101231000Y-72901000D02*
X99429000Y-72901000D01*
X99429000Y-70799000D01*
X101231000Y-70799000D01*
X101231000Y-72901000D01*
X101231000Y-72901000D01*
G37*
G36*
X106311000Y-72901000D02*
X104509000Y-72901000D01*
X104509000Y-70799000D01*
X106311000Y-70799000D01*
X106311000Y-72901000D01*
X106311000Y-72901000D01*
G37*
G36*
X113931000Y-72901000D02*
X112129000Y-72901000D01*
X112129000Y-70799000D01*
X113931000Y-70799000D01*
X113931000Y-72901000D01*
X113931000Y-72901000D01*
G37*
G36*
X103721000Y-68901000D02*
X102019000Y-68901000D01*
X102019000Y-66799000D01*
X103721000Y-66799000D01*
X103721000Y-68901000D01*
X103721000Y-68901000D01*
G37*
G36*
X119011000Y-68901000D02*
X117209000Y-68901000D01*
X117209000Y-66799000D01*
X119011000Y-66799000D01*
X119011000Y-68901000D01*
X119011000Y-68901000D01*
G37*
G36*
X113931000Y-68901000D02*
X112129000Y-68901000D01*
X112129000Y-66799000D01*
X113931000Y-66799000D01*
X113931000Y-68901000D01*
X113931000Y-68901000D01*
G37*
G36*
X106311000Y-68901000D02*
X104509000Y-68901000D01*
X104509000Y-66799000D01*
X106311000Y-66799000D01*
X106311000Y-68901000D01*
X106311000Y-68901000D01*
G37*
G36*
X101231000Y-68901000D02*
X99429000Y-68901000D01*
X99429000Y-66799000D01*
X101231000Y-66799000D01*
X101231000Y-68901000D01*
X101231000Y-68901000D01*
G37*
G36*
X116421000Y-68901000D02*
X114719000Y-68901000D01*
X114719000Y-66799000D01*
X116421000Y-66799000D01*
X116421000Y-68901000D01*
X116421000Y-68901000D01*
G37*
G36*
X128551000Y-66321000D02*
X125449000Y-66321000D01*
X125449000Y-63219000D01*
X128551000Y-63219000D01*
X128551000Y-66321000D01*
X128551000Y-66321000D01*
G37*
G36*
X93062527Y-63258736D02*
X93162410Y-63278604D01*
X93444674Y-63395521D01*
X93698705Y-63565259D01*
X93914741Y-63781295D01*
X94084479Y-64035326D01*
X94201396Y-64317590D01*
X94261000Y-64617240D01*
X94261000Y-64922760D01*
X94201396Y-65222410D01*
X94084479Y-65504674D01*
X93914741Y-65758705D01*
X93698705Y-65974741D01*
X93444674Y-66144479D01*
X93162410Y-66261396D01*
X93062527Y-66281264D01*
X92862762Y-66321000D01*
X92557238Y-66321000D01*
X92357473Y-66281264D01*
X92257590Y-66261396D01*
X91975326Y-66144479D01*
X91721295Y-65974741D01*
X91505259Y-65758705D01*
X91335521Y-65504674D01*
X91218604Y-65222410D01*
X91159000Y-64922760D01*
X91159000Y-64617240D01*
X91218604Y-64317590D01*
X91335521Y-64035326D01*
X91505259Y-63781295D01*
X91721295Y-63565259D01*
X91975326Y-63395521D01*
X92257590Y-63278604D01*
X92357473Y-63258736D01*
X92557238Y-63219000D01*
X92862762Y-63219000D01*
X93062527Y-63258736D01*
X93062527Y-63258736D01*
G37*
G36*
X99911000Y-65281000D02*
X98209000Y-65281000D01*
X98209000Y-63179000D01*
X99911000Y-63179000D01*
X99911000Y-65281000D01*
X99911000Y-65281000D01*
G37*
G36*
X121501000Y-65281000D02*
X119799000Y-65281000D01*
X119799000Y-63179000D01*
X121501000Y-63179000D01*
X121501000Y-65281000D01*
X121501000Y-65281000D01*
G37*
G36*
X103268213Y-63006249D02*
X103362652Y-63034897D01*
X103449687Y-63081418D01*
X103525975Y-63144025D01*
X103588582Y-63220313D01*
X103635103Y-63307348D01*
X103663751Y-63401787D01*
X103673424Y-63500000D01*
X103663751Y-63598213D01*
X103635103Y-63692652D01*
X103588582Y-63779687D01*
X103525975Y-63855975D01*
X103449687Y-63918582D01*
X103362652Y-63965103D01*
X103268213Y-63993751D01*
X103194612Y-64001000D01*
X102545388Y-64001000D01*
X102471787Y-63993751D01*
X102377348Y-63965103D01*
X102290313Y-63918582D01*
X102214025Y-63855975D01*
X102151418Y-63779687D01*
X102104897Y-63692652D01*
X102076249Y-63598213D01*
X102066576Y-63500000D01*
X102076249Y-63401787D01*
X102104897Y-63307348D01*
X102151418Y-63220313D01*
X102214025Y-63144025D01*
X102290313Y-63081418D01*
X102377348Y-63034897D01*
X102471787Y-63006249D01*
X102545388Y-62999000D01*
X103194612Y-62999000D01*
X103268213Y-63006249D01*
X103268213Y-63006249D01*
G37*
G36*
X115968213Y-63006249D02*
X116062652Y-63034897D01*
X116149687Y-63081418D01*
X116225975Y-63144025D01*
X116288582Y-63220313D01*
X116335103Y-63307348D01*
X116363751Y-63401787D01*
X116373424Y-63500000D01*
X116363751Y-63598213D01*
X116335103Y-63692652D01*
X116288582Y-63779687D01*
X116225975Y-63855975D01*
X116149687Y-63918582D01*
X116062652Y-63965103D01*
X115968213Y-63993751D01*
X115894612Y-64001000D01*
X115245388Y-64001000D01*
X115171787Y-63993751D01*
X115077348Y-63965103D01*
X114990313Y-63918582D01*
X114914025Y-63855975D01*
X114851418Y-63779687D01*
X114804897Y-63692652D01*
X114776249Y-63598213D01*
X114766576Y-63500000D01*
X114776249Y-63401787D01*
X114804897Y-63307348D01*
X114851418Y-63220313D01*
X114914025Y-63144025D01*
X114990313Y-63081418D01*
X115077348Y-63034897D01*
X115171787Y-63006249D01*
X115245388Y-62999000D01*
X115894612Y-62999000D01*
X115968213Y-63006249D01*
X115968213Y-63006249D01*
G37*
G36*
X108271000Y-63081000D02*
X106169000Y-63081000D01*
X106169000Y-61379000D01*
X108271000Y-61379000D01*
X108271000Y-63081000D01*
X108271000Y-63081000D01*
G37*
G36*
X112271000Y-63081000D02*
X110169000Y-63081000D01*
X110169000Y-61379000D01*
X112271000Y-61379000D01*
X112271000Y-63081000D01*
X112271000Y-63081000D01*
G37*
G36*
X103268213Y-61736249D02*
X103362652Y-61764897D01*
X103449687Y-61811418D01*
X103525975Y-61874025D01*
X103588582Y-61950313D01*
X103635103Y-62037348D01*
X103663751Y-62131787D01*
X103673424Y-62230000D01*
X103663751Y-62328213D01*
X103635103Y-62422652D01*
X103588582Y-62509687D01*
X103525975Y-62585975D01*
X103449687Y-62648582D01*
X103362652Y-62695103D01*
X103268213Y-62723751D01*
X103194612Y-62731000D01*
X102545388Y-62731000D01*
X102471787Y-62723751D01*
X102377348Y-62695103D01*
X102290313Y-62648582D01*
X102214025Y-62585975D01*
X102151418Y-62509687D01*
X102104897Y-62422652D01*
X102076249Y-62328213D01*
X102066576Y-62230000D01*
X102076249Y-62131787D01*
X102104897Y-62037348D01*
X102151418Y-61950313D01*
X102214025Y-61874025D01*
X102290313Y-61811418D01*
X102377348Y-61764897D01*
X102471787Y-61736249D01*
X102545388Y-61729000D01*
X103194612Y-61729000D01*
X103268213Y-61736249D01*
X103268213Y-61736249D01*
G37*
G36*
X115968213Y-61736249D02*
X116062652Y-61764897D01*
X116149687Y-61811418D01*
X116225975Y-61874025D01*
X116288582Y-61950313D01*
X116335103Y-62037348D01*
X116363751Y-62131787D01*
X116373424Y-62230000D01*
X116363751Y-62328213D01*
X116335103Y-62422652D01*
X116288582Y-62509687D01*
X116225975Y-62585975D01*
X116149687Y-62648582D01*
X116062652Y-62695103D01*
X115968213Y-62723751D01*
X115894612Y-62731000D01*
X115245388Y-62731000D01*
X115171787Y-62723751D01*
X115077348Y-62695103D01*
X114990313Y-62648582D01*
X114914025Y-62585975D01*
X114851418Y-62509687D01*
X114804897Y-62422652D01*
X114776249Y-62328213D01*
X114766576Y-62230000D01*
X114776249Y-62131787D01*
X114804897Y-62037348D01*
X114851418Y-61950313D01*
X114914025Y-61874025D01*
X114990313Y-61811418D01*
X115077348Y-61764897D01*
X115171787Y-61736249D01*
X115245388Y-61729000D01*
X115894612Y-61729000D01*
X115968213Y-61736249D01*
X115968213Y-61736249D01*
G37*
G36*
X116371000Y-61461000D02*
X114769000Y-61461000D01*
X114769000Y-60459000D01*
X116371000Y-60459000D01*
X116371000Y-61461000D01*
X116371000Y-61461000D01*
G37*
G36*
X103671000Y-61461000D02*
X102069000Y-61461000D01*
X102069000Y-60459000D01*
X103671000Y-60459000D01*
X103671000Y-61461000D01*
X103671000Y-61461000D01*
G37*
G36*
X121501000Y-61281000D02*
X119799000Y-61281000D01*
X119799000Y-59179000D01*
X121501000Y-59179000D01*
X121501000Y-61281000D01*
X121501000Y-61281000D01*
G37*
G36*
X99911000Y-61281000D02*
X98209000Y-61281000D01*
X98209000Y-59179000D01*
X99911000Y-59179000D01*
X99911000Y-61281000D01*
X99911000Y-61281000D01*
G37*
G36*
X94261000Y-61241000D02*
X91159000Y-61241000D01*
X91159000Y-58139000D01*
X94261000Y-58139000D01*
X94261000Y-61241000D01*
X94261000Y-61241000D01*
G37*
G36*
X127352527Y-58178736D02*
X127452410Y-58198604D01*
X127734674Y-58315521D01*
X127988705Y-58485259D01*
X128204741Y-58701295D01*
X128374479Y-58955326D01*
X128491396Y-59237590D01*
X128551000Y-59537240D01*
X128551000Y-59842760D01*
X128491396Y-60142410D01*
X128374479Y-60424674D01*
X128204741Y-60678705D01*
X127988705Y-60894741D01*
X127734674Y-61064479D01*
X127452410Y-61181396D01*
X127352527Y-61201264D01*
X127152762Y-61241000D01*
X126847238Y-61241000D01*
X126647473Y-61201264D01*
X126547590Y-61181396D01*
X126265326Y-61064479D01*
X126011295Y-60894741D01*
X125795259Y-60678705D01*
X125625521Y-60424674D01*
X125508604Y-60142410D01*
X125449000Y-59842760D01*
X125449000Y-59537240D01*
X125508604Y-59237590D01*
X125625521Y-58955326D01*
X125795259Y-58701295D01*
X126011295Y-58485259D01*
X126265326Y-58315521D01*
X126547590Y-58198604D01*
X126647473Y-58178736D01*
X126847238Y-58139000D01*
X127152762Y-58139000D01*
X127352527Y-58178736D01*
X127352527Y-58178736D01*
G37*
G36*
X120281000Y-57661000D02*
X118479000Y-57661000D01*
X118479000Y-55559000D01*
X120281000Y-55559000D01*
X120281000Y-57661000D01*
X120281000Y-57661000D01*
G37*
G36*
X99961000Y-57661000D02*
X98159000Y-57661000D01*
X98159000Y-55559000D01*
X99961000Y-55559000D01*
X99961000Y-57661000D01*
X99961000Y-57661000D01*
G37*
G36*
X102501000Y-57661000D02*
X100699000Y-57661000D01*
X100699000Y-55559000D01*
X102501000Y-55559000D01*
X102501000Y-57661000D01*
X102501000Y-57661000D01*
G37*
G36*
X117741000Y-57661000D02*
X115939000Y-57661000D01*
X115939000Y-55559000D01*
X117741000Y-55559000D01*
X117741000Y-57661000D01*
X117741000Y-57661000D01*
G37*
G36*
X107032527Y-51828736D02*
X107132410Y-51848604D01*
X107414674Y-51965521D01*
X107668705Y-52135259D01*
X107884741Y-52351295D01*
X108054479Y-52605326D01*
X108171396Y-52887590D01*
X108231000Y-53187240D01*
X108231000Y-53492760D01*
X108171396Y-53792410D01*
X108054479Y-54074674D01*
X107884741Y-54328705D01*
X107668705Y-54544741D01*
X107414674Y-54714479D01*
X107132410Y-54831396D01*
X107032527Y-54851264D01*
X106832762Y-54891000D01*
X106527238Y-54891000D01*
X106327473Y-54851264D01*
X106227590Y-54831396D01*
X105945326Y-54714479D01*
X105691295Y-54544741D01*
X105475259Y-54328705D01*
X105305521Y-54074674D01*
X105188604Y-53792410D01*
X105129000Y-53492760D01*
X105129000Y-53187240D01*
X105188604Y-52887590D01*
X105305521Y-52605326D01*
X105475259Y-52351295D01*
X105691295Y-52135259D01*
X105945326Y-51965521D01*
X106227590Y-51848604D01*
X106327473Y-51828736D01*
X106527238Y-51789000D01*
X106832762Y-51789000D01*
X107032527Y-51828736D01*
X107032527Y-51828736D01*
G37*
G36*
X113311000Y-54891000D02*
X110209000Y-54891000D01*
X110209000Y-51789000D01*
X113311000Y-51789000D01*
X113311000Y-54891000D01*
X113311000Y-54891000D01*
G37*
G36*
X99961000Y-53661000D02*
X98159000Y-53661000D01*
X98159000Y-51559000D01*
X99961000Y-51559000D01*
X99961000Y-53661000D01*
X99961000Y-53661000D01*
G37*
G36*
X102501000Y-53661000D02*
X100699000Y-53661000D01*
X100699000Y-51559000D01*
X102501000Y-51559000D01*
X102501000Y-53661000D01*
X102501000Y-53661000D01*
G37*
G36*
X117741000Y-53661000D02*
X115939000Y-53661000D01*
X115939000Y-51559000D01*
X117741000Y-51559000D01*
X117741000Y-53661000D01*
X117741000Y-53661000D01*
G37*
G36*
X120281000Y-53661000D02*
X118479000Y-53661000D01*
X118479000Y-51559000D01*
X120281000Y-51559000D01*
X120281000Y-53661000D01*
X120281000Y-53661000D01*
G37*
M02*
